# xmcd
#
# Track frame offsets: 
#        150
#        11328
#        23104
#        32860
#        41526
#        54088
#        69363
#        82060
#        93017
#        106642
#        118498
#        134350
#        144795
#        153315
#        167602
#        185080
#        195536
#        207298
#
# Disc length: 2925 seconds
#
# Revision: 0
# Processed by: cddbd v1.5.2PL0 Copyright (c) Steve Scherf et al.
# Submitted via: ExactAudioCopy v1.3
#
DISCID=e40b6b12
DTITLE=Nico Brina - Who Cares, Just Boogie
DYEAR=2010
DGENRE=Boogie Woogie, Piano Blues
TTITLE0=Two Rabbits On A Blind Date
TTITLE1=Who Cares, Just Boogie
TTITLE2=Don't Mess Around With A Pianom
TTITLE3=Crying Cats And Dogs
TTITLE4=Jon King Tons Blue Boogie
TTITLE5=Rabbit's Blues
TTITLE6=Time To Boogie Woogie
TTITLE7=She Loves To Boogie
TTITLE8=Happy Ol' Boy
TTITLE9=Little Sugar Mouse
TTITLE10=Saturday Night Blues
TTITLE11=Hitchhike Boogie
TTITLE12=Jumpin' Chicks On A Washboard
TTITLE13=Boogie Woogie Power
TTITLE14=Cool Cat Blues
TTITLE15=Let The Cat Out Of The Bag
TTITLE16=Offhanded Boogie
TTITLE17=Charlie's Boogie
EXTD=
EXTT0=
EXTT1=
EXTT2=
EXTT3=
EXTT4=
EXTT5=
EXTT6=
EXTT7=
EXTT8=
EXTT9=
EXTT10=
EXTT11=
EXTT12=
EXTT13=
EXTT14=
EXTT15=
EXTT16=
EXTT17=
PLAYORDER=
